<svg xmlns="http://www.w3.org/2000/svg" width="720" height="300" viewBox="0 0 720 300">
<rect width="100%" height="100%" fill="#ffffff"/>
<defs><pattern id="hatch" width="6" height="6" patternUnits="userSpaceOnUse"><path d="M0 6 L6 0" stroke="#111111" stroke-width="1"/></pattern><pattern id="hatch2" width="6" height="6" patternUnits="userSpaceOnUse"><path d="M0 0 H6 M0 3 H6" stroke="#111111" stroke-width="1"/></pattern><pattern id="dots" width="6" height="6" patternUnits="userSpaceOnUse"><circle cx="2" cy="2" r="0.9" fill="#111111"/></pattern></defs>
<text x="124" y="72" fill="#111111" font-size="13" text-anchor="middle" font-family="Noto Sans CJK SC, Source Han Sans SC, sans-serif">左视图</text>
<rect x="70" y="80" width="36" height="36" fill="#ffffff" stroke="#111111" stroke-width="1.4"/>
<rect x="106" y="80" width="36" height="36" fill="#ffffff" stroke="#111111" stroke-width="1.4"/>
<rect x="142" y="80" width="36" height="36" fill="#ffffff" stroke="#111111" stroke-width="1.4"/>
<rect x="70" y="116" width="36" height="36" fill="#111111" stroke="#111111" stroke-width="1.4"/>
<rect x="106" y="116" width="36" height="36" fill="#ffffff" stroke="#111111" stroke-width="1.4"/>
<rect x="142" y="116" width="36" height="36" fill="#ffffff" stroke="#111111" stroke-width="1.4"/>
<rect x="70" y="152" width="36" height="36" fill="#111111" stroke="#111111" stroke-width="1.4"/>
<rect x="106" y="152" width="36" height="36" fill="url(#hatch)" stroke="#111111" stroke-width="1.4"/>
<rect x="142" y="152" width="36" height="36" fill="#ffffff" stroke="#111111" stroke-width="1.4"/>
<text x="334" y="72" fill="#111111" font-size="13" text-anchor="middle" font-family="Noto Sans CJK SC, Source Han Sans SC, sans-serif">主视图</text>
<rect x="280" y="80" width="36" height="36" fill="#ffffff" stroke="#111111" stroke-width="1.4"/>
<rect x="316" y="80" width="36" height="36" fill="#ffffff" stroke="#111111" stroke-width="1.4"/>
<rect x="352" y="80" width="36" height="36" fill="#ffffff" stroke="#111111" stroke-width="1.4"/>
<rect x="280" y="116" width="36" height="36" fill="#111111" stroke="#111111" stroke-width="1.4"/>
<rect x="316" y="116" width="36" height="36" fill="url(#hatch)" stroke="#111111" stroke-width="1.4"/>
<rect x="352" y="116" width="36" height="36" fill="#ffffff" stroke="#111111" stroke-width="1.4"/>
<rect x="280" y="152" width="36" height="36" fill="#111111" stroke="#111111" stroke-width="1.4"/>
<rect x="316" y="152" width="36" height="36" fill="#111111" stroke="#111111" stroke-width="1.4"/>
<rect x="352" y="152" width="36" height="36" fill="#ffffff" stroke="#111111" stroke-width="1.4"/>
<text x="544" y="72" fill="#111111" font-size="13" text-anchor="middle" font-family="Noto Sans CJK SC, Source Han Sans SC, sans-serif">俯视图</text>
<rect x="490" y="80" width="36" height="36" fill="#ffffff" stroke="#111111" stroke-width="1.4"/>
<rect x="526" y="80" width="36" height="36" fill="#ffffff" stroke="#111111" stroke-width="1.4"/>
<rect x="562" y="80" width="36" height="36" fill="#ffffff" stroke="#111111" stroke-width="1.4"/>
<rect x="490" y="116" width="36" height="36" fill="url(#hatch)" stroke="#111111" stroke-width="1.4"/>
<rect x="526" y="116" width="36" height="36" fill="#ffffff" stroke="#111111" stroke-width="1.4"/>
<rect x="562" y="116" width="36" height="36" fill="#ffffff" stroke="#111111" stroke-width="1.4"/>
<rect x="490" y="152" width="36" height="36" fill="#111111" stroke="#111111" stroke-width="1.4"/>
<rect x="526" y="152" width="36" height="36" fill="#111111" stroke="#111111" stroke-width="1.4"/>
<rect x="562" y="152" width="36" height="36" fill="#ffffff" stroke="#111111" stroke-width="1.4"/>
</svg>
